<svg width="48" height="48" fill="none" xmlns="http://www.w3.org/2000/svg">
  <circle cx="23.9997" cy="23.9997" r="19.4347" fill="#86F8FF" stroke="#1F2937" stroke-width="1.5169"/>
  <path fill-rule="evenodd" clip-rule="evenodd" d="M40.2821 13.2124c-3.4976-5.2688-9.4844-8.7422-16.2824-8.7422-3.4173 0-6.6295.8777-9.4236 2.42.1067 1.0034.3946 2.2342 1.1008 3.3071 1.5032 2.284 3.7368 2.6756 6.8953 2.6756h1.1437c2.5268 0 4.5751 2.0452 4.5751 4.5681 0 2.5229 2.0483 4.5681 4.5751 4.5681 2.5267 0 4.575-2.0452 4.575-4.5681 0-1.9101 1.1741-3.5464 2.841-4.2286Zm-21.3978 29.64c-8.3046-2.2479-14.414-9.8367-14.414-18.8525H8.93c1.8325 0 3.3181 1.4856 3.3181 3.3182v1.659c0 1.8326 1.4856 3.3181 3.3181 3.3181 1.8325 0 3.3181 1.4856 3.3181 3.3181v7.2391Zm22.0865-9.1825c-2.2519 3.9435-5.8387 7.0264-10.1449 8.6331v-5.315c0-1.8326 1.4855-3.3181 3.3181-3.3181h6.8268Z" fill="#61C965"/>
  <path d="m40.2822 13.2124.2513.6142a.6637.6637 0 0 0 .3015-.9812l-.5528.367ZM14.5761 6.8901l-.3207-.581a.6635.6635 0 0 0-.3392.6513l.6599-.0703Zm1.1008 3.3072-.5544.3648.5544-.3648Zm3.2074 32.6551-.1734.6406a.6637.6637 0 0 0 .837-.6406h-.6636ZM4.4703 23.9999v-.6636a.6635.6635 0 0 0-.6637.6636h.6636Zm36.5005 9.67.5763.3291a.6636.6636 0 0 0-.5763-.9927v.6636ZM30.8259 42.303h-.6637a.6636.6636 0 0 0 .8956.6218l-.2319-.6218ZM23.9997 5.1338c6.5664 0 12.3496 3.3542 15.7296 8.4457l1.1057-.7341c-3.6154-5.4462-9.8056-9.0388-16.8353-9.0388v1.3272Zm-9.103 2.3373c2.6985-1.4894 5.8007-2.3373 9.103-2.3373V3.8066c-3.5322 0-6.8545.9075-9.7443 2.5025l.6413 1.162Zm-.9805-.5107c.1129 1.062.4207 2.408 1.2063 3.6017l1.1087-.7296c-.6267-.9523-.8947-2.0676-.9952-3.0126l-1.3198.1405Zm1.2063 3.6017c1.7048 2.5903 4.2652 2.9744 7.4497 2.9744v-1.3272c-3.1324 0-5.0393-.399-6.341-2.3768l-1.1087.7296Zm7.4497 2.9744h1.1437v-1.3272h-1.1437v1.3272Zm1.1437 0c2.1612 0 3.9115 1.7491 3.9115 3.9045h1.3272c0-2.8904-2.3464-5.2317-5.2387-5.2317v1.3272Zm3.9115 3.9045c0 2.8903 2.3464 5.2317 5.2387 5.2317v-1.3273c-2.1612 0-3.9115-1.749-3.9115-3.9044h-1.3272Zm5.2387 5.2317c2.8923 0 5.2387-2.3414 5.2387-5.2317h-1.3273c0 2.1554-1.7503 3.9044-3.9114 3.9044v1.3273Zm5.2387-5.2317c0-1.631 1.0021-3.0305 2.4287-3.6144l-.5027-1.2283c-1.9072.7805-3.2533 2.6535-3.2533 4.8427h1.3273ZM19.0577 42.2118C11.035 40.0402 5.1339 32.7084 5.1338 23.9999H3.8066c.0001 9.3231 6.3177 17.1688 14.9043 19.4931l.3468-1.2812ZM8.93 23.3363H4.4702v1.3273H8.93v-1.3273Zm3.9817 3.9818c0-2.1991-1.7827-3.9818-3.9817-3.9818v1.3273c1.466 0 2.6545 1.1884 2.6545 2.6545h1.3272Zm0 1.659v-1.659h-1.3272v1.659h1.3272Zm2.6545 2.6545c-1.466 0-2.6545-1.1885-2.6545-2.6545h-1.3272c0 2.1991 1.7827 3.9818 3.9817 3.9818v-1.3273Zm3.9817 3.9817c0-2.199-1.7826-3.9817-3.9817-3.9817v1.3273c1.466 0 2.6545 1.1884 2.6545 2.6544h1.3272Zm0 7.2391v-7.2391h-1.3272v7.2391h1.3272Zm20.8466-9.5116c-2.1757 3.8102-5.6415 6.7886-9.8006 8.3404l.4639 1.2436c4.4534-1.6616 8.1613-4.8489 10.4893-8.9258l-1.1526-.6582Zm-8.905 8.9622v-5.315h-1.3273v5.315h1.3273Zm0-5.315c0-1.466 1.1884-2.6545 2.6545-2.6545v-1.3272c-2.1991 0-3.9818 1.7826-3.9818 3.9817h1.3273Zm2.6545-2.6545h6.8268v-1.3272H34.144v1.3272Z" fill="#1F2937"/>
</svg>